<mxfile host="Electron" agent="Mozilla/5.0 (Windows NT 10.0; Win64; x64) AppleWebKit/537.36 (KHTML, like Gecko) draw.io/26.0.15 Chrome/132.0.6834.196 Electron/34.2.0 Safari/537.36" version="26.0.15">
  <diagram id="uI6INVWZWIdl2gaTY68b" name="ページ1">
    <mxGraphModel dx="1195" dy="725" grid="1" gridSize="10" guides="1" tooltips="1" connect="1" arrows="1" fold="1" page="1" pageScale="1" pageWidth="950" pageHeight="600" background="#ffffff" math="1" shadow="0">
      <root>
        <mxCell id="0" />
        <mxCell id="1" parent="0" />
        <mxCell id="_U1R-gc3JedzgA5Nqlb2-1" value="" style="endArrow=classic;html=1;rounded=0;" edge="1" parent="1">
          <mxGeometry width="50" height="50" relative="1" as="geometry">
            <mxPoint x="280" y="380" as="sourcePoint" />
            <mxPoint x="280" y="80" as="targetPoint" />
          </mxGeometry>
        </mxCell>
        <mxCell id="_U1R-gc3JedzgA5Nqlb2-2" value="" style="endArrow=classic;html=1;rounded=0;" edge="1" parent="1">
          <mxGeometry width="50" height="50" relative="1" as="geometry">
            <mxPoint x="260" y="360" as="sourcePoint" />
            <mxPoint x="720" y="360" as="targetPoint" />
          </mxGeometry>
        </mxCell>
        <mxCell id="_U1R-gc3JedzgA5Nqlb2-3" value="`Y=\int_0^y x(X) dX`" style="text;html=1;align=center;verticalAlign=middle;whiteSpace=wrap;rounded=0;fontSize=24;" vertex="1" parent="1">
          <mxGeometry x="40" y="200" width="230" height="60" as="geometry" />
        </mxCell>
        <mxCell id="_U1R-gc3JedzgA5Nqlb2-4" value="`y=\int_0^x X(x) dx`" style="text;html=1;align=center;verticalAlign=middle;whiteSpace=wrap;rounded=0;fontSize=24;" vertex="1" parent="1">
          <mxGeometry x="700" y="210" width="230" height="60" as="geometry" />
        </mxCell>
        <mxCell id="_U1R-gc3JedzgA5Nqlb2-5" value="`x=x(X)`" style="text;html=1;align=center;verticalAlign=middle;whiteSpace=wrap;rounded=0;fontSize=24;" vertex="1" parent="1">
          <mxGeometry x="530" y="55" width="160" height="50" as="geometry" />
        </mxCell>
        <mxCell id="_U1R-gc3JedzgA5Nqlb2-7" value="`O`" style="text;html=1;align=center;verticalAlign=middle;whiteSpace=wrap;rounded=0;fontSize=24;" vertex="1" parent="1">
          <mxGeometry x="230" y="360" width="60" height="30" as="geometry" />
        </mxCell>
        <mxCell id="_U1R-gc3JedzgA5Nqlb2-8" value="`y+Y=xX`" style="text;html=1;align=center;verticalAlign=middle;whiteSpace=wrap;rounded=0;fontSize=24;" vertex="1" parent="1">
          <mxGeometry x="390" y="390" width="230" height="60" as="geometry" />
        </mxCell>
        <mxCell id="_U1R-gc3JedzgA5Nqlb2-9" value="曲線の下側の面積" style="text;html=1;align=center;verticalAlign=middle;whiteSpace=wrap;rounded=0;fontSize=24;fontColor=#00CC00;" vertex="1" parent="1">
          <mxGeometry x="30" y="520" width="220" height="30" as="geometry" />
        </mxCell>
        <mxCell id="_U1R-gc3JedzgA5Nqlb2-10" value="曲線の左側の面積" style="text;html=1;align=center;verticalAlign=middle;whiteSpace=wrap;rounded=0;fontSize=24;fontColor=#FF8000;" vertex="1" parent="1">
          <mxGeometry x="380" y="520" width="220" height="30" as="geometry" />
        </mxCell>
        <mxCell id="_U1R-gc3JedzgA5Nqlb2-11" value="" style="rounded=0;whiteSpace=wrap;html=1;fillColor=none;strokeColor=#FF0000;strokeWidth=2;" vertex="1" parent="1">
          <mxGeometry x="280" y="120" width="400" height="240" as="geometry" />
        </mxCell>
        <mxCell id="_U1R-gc3JedzgA5Nqlb2-12" value="`X`" style="text;html=1;align=center;verticalAlign=middle;whiteSpace=wrap;rounded=0;fontSize=24;" vertex="1" parent="1">
          <mxGeometry x="232" y="105" width="60" height="30" as="geometry" />
        </mxCell>
        <mxCell id="_U1R-gc3JedzgA5Nqlb2-13" value="`x`" style="text;html=1;align=center;verticalAlign=middle;whiteSpace=wrap;rounded=0;fontSize=24;" vertex="1" parent="1">
          <mxGeometry x="650" y="370" width="60" height="30" as="geometry" />
        </mxCell>
        <mxCell id="_U1R-gc3JedzgA5Nqlb2-16" value="`X=X(x)`" style="text;html=1;align=center;verticalAlign=middle;whiteSpace=wrap;rounded=0;fontSize=24;" vertex="1" parent="1">
          <mxGeometry x="710" y="120" width="160" height="50" as="geometry" />
        </mxCell>
        <mxCell id="_U1R-gc3JedzgA5Nqlb2-17" value="" style="endArrow=classic;html=1;rounded=0;" edge="1" parent="1">
          <mxGeometry width="50" height="50" relative="1" as="geometry">
            <mxPoint x="260" y="229.5" as="sourcePoint" />
            <mxPoint x="340" y="230.5" as="targetPoint" />
          </mxGeometry>
        </mxCell>
        <mxCell id="_U1R-gc3JedzgA5Nqlb2-18" value="" style="endArrow=classic;html=1;rounded=0;" edge="1" parent="1">
          <mxGeometry width="50" height="50" relative="1" as="geometry">
            <mxPoint x="710" y="239.5" as="sourcePoint" />
            <mxPoint x="630" y="239.5" as="targetPoint" />
          </mxGeometry>
        </mxCell>
        <mxCell id="_U1R-gc3JedzgA5Nqlb2-19" value="長方形の面積" style="text;html=1;align=center;verticalAlign=middle;whiteSpace=wrap;rounded=0;fontSize=24;fontColor=#FF0000;" vertex="1" parent="1">
          <mxGeometry x="610" y="520" width="220" height="30" as="geometry" />
        </mxCell>
        <mxCell id="_U1R-gc3JedzgA5Nqlb2-20" value="" style="endArrow=none;html=1;rounded=0;exitX=0.75;exitY=1;exitDx=0;exitDy=0;strokeWidth=4;strokeColor=#FF0000;" edge="1" parent="1">
          <mxGeometry width="50" height="50" relative="1" as="geometry">
            <mxPoint x="534.5" y="440" as="sourcePoint" />
            <mxPoint x="582" y="440" as="targetPoint" />
          </mxGeometry>
        </mxCell>
        <mxCell id="_U1R-gc3JedzgA5Nqlb2-21" value="" style="endArrow=none;html=1;rounded=0;exitX=0.75;exitY=1;exitDx=0;exitDy=0;strokeWidth=4;strokeColor=#00CC00;" edge="1" parent="1">
          <mxGeometry width="50" height="50" relative="1" as="geometry">
            <mxPoint x="426.25" y="440" as="sourcePoint" />
            <mxPoint x="450" y="440" as="targetPoint" />
          </mxGeometry>
        </mxCell>
        <mxCell id="_U1R-gc3JedzgA5Nqlb2-22" value="" style="endArrow=none;html=1;rounded=0;exitX=0.75;exitY=1;exitDx=0;exitDy=0;strokeWidth=4;strokeColor=#FF8000;" edge="1" parent="1">
          <mxGeometry width="50" height="50" relative="1" as="geometry">
            <mxPoint x="476.25" y="440" as="sourcePoint" />
            <mxPoint x="500" y="440" as="targetPoint" />
          </mxGeometry>
        </mxCell>
        <mxCell id="_U1R-gc3JedzgA5Nqlb2-23" value="" style="endArrow=classic;html=1;rounded=0;exitX=0.5;exitY=0;exitDx=0;exitDy=0;" edge="1" parent="1" source="_U1R-gc3JedzgA5Nqlb2-9">
          <mxGeometry width="50" height="50" relative="1" as="geometry">
            <mxPoint x="390" y="490" as="sourcePoint" />
            <mxPoint x="440" y="440" as="targetPoint" />
            <Array as="points">
              <mxPoint x="140" y="480" />
              <mxPoint x="440" y="480" />
            </Array>
          </mxGeometry>
        </mxCell>
        <mxCell id="_U1R-gc3JedzgA5Nqlb2-24" value="" style="endArrow=classic;html=1;rounded=0;exitX=0.5;exitY=0;exitDx=0;exitDy=0;" edge="1" parent="1" source="_U1R-gc3JedzgA5Nqlb2-10">
          <mxGeometry width="50" height="50" relative="1" as="geometry">
            <mxPoint x="440" y="490" as="sourcePoint" />
            <mxPoint x="490" y="440" as="targetPoint" />
            <Array as="points">
              <mxPoint x="490" y="480" />
            </Array>
          </mxGeometry>
        </mxCell>
        <mxCell id="_U1R-gc3JedzgA5Nqlb2-25" value="" style="endArrow=classic;html=1;rounded=0;exitX=0.5;exitY=0;exitDx=0;exitDy=0;" edge="1" parent="1" source="_U1R-gc3JedzgA5Nqlb2-19">
          <mxGeometry width="50" height="50" relative="1" as="geometry">
            <mxPoint x="510" y="490" as="sourcePoint" />
            <mxPoint x="560" y="440" as="targetPoint" />
            <Array as="points">
              <mxPoint x="720" y="480" />
              <mxPoint x="560" y="480" />
            </Array>
          </mxGeometry>
        </mxCell>
      </root>
    </mxGraphModel>
  </diagram>
</mxfile>
